<svg id="圖層_1" data-name="圖層 1" xmlns="http://www.w3.org/2000/svg" viewBox="0 0 732 133"><defs><style>.cls-1,.cls-5,.cls-6{fill:#87af6d;}.cls-1,.cls-6{stroke:#87af6d;}.cls-1,.cls-2,.cls-6{stroke-miterlimit:10;}.cls-1{stroke-width:5px;}.cls-2{fill:#bfdd87;stroke:#bfdd87;}.cls-2,.cls-6{stroke-width:2px;}.cls-3{fill:#f26666;}.cls-4{fill:#ccc;}</style></defs><title>LOGO_final</title><path class="cls-1" d="M121.66,45.65h-3.92a3.7,3.7,0,0,1-3.28-2,41.82,41.82,0,0,0-5.95-8.3c-5.13-5.65-5.68-7.14-13.87-11.82-7.19-4.1-13.87-6.83-26.7-6.16A46.92,46.92,0,0,0,43.8,25.11c-7.16,4.54-12.4,10.92-16.44,18S21.2,59,21.71,70.81c.25,5.65,3.6,14.9,8.22,22.09,4.85,7.54,12.82,14.61,21.57,18C64.86,116,73.07,115,81.69,113.53c4.85-.81,14.26-4.65,20.51-10.1a3.75,3.75,0,0,0-.31-5.87l-1.8-1.3A3.76,3.76,0,0,1,102,89.45l21.14-1.84a3.76,3.76,0,0,1,4.1,3.75v22.88a3.77,3.77,0,0,1-6.81,2.22l-4-5.53a3.77,3.77,0,0,0-5.55-.59c-4.53,4.06-13.6,11.21-23.35,13.37-13.12,2.92-27.73,4.11-42.11-3.08C27,111.48,16.26,96.87,12,79,8.65,65.3,11,50.68,17.35,38.12A57.07,57.07,0,0,1,37.67,15.63,61.56,61.56,0,0,1,67.94,6.1a60.94,60.94,0,0,1,30.64,6.59l.34.19c8.07,5,9.37,5.84,15.75,12.23a59.68,59.68,0,0,1,10.38,15.14A3.76,3.76,0,0,1,121.66,45.65Z"/><path class="cls-2" d="M98.44,48.86A34.1,34.1,0,0,0,86,36.41a34.46,34.46,0,0,0-34.33,0A34.1,34.1,0,0,0,39.21,48.86a34.46,34.46,0,0,0,0,34.33A34.1,34.1,0,0,0,51.66,95.64a34.39,34.39,0,0,0,34.33,0A34.1,34.1,0,0,0,98.44,83.19a34.39,34.39,0,0,0,0-34.33ZM89.8,78.18A24.22,24.22,0,0,1,81,87a24.35,24.35,0,0,1-24.31,0,24.22,24.22,0,0,1-8.82-8.82,24.35,24.35,0,0,1,0-24.31,24.22,24.22,0,0,1,8.82-8.82,24.35,24.35,0,0,1,24.31,0,24.22,24.22,0,0,1,8.82,8.82,24.35,24.35,0,0,1,0,24.31Z"/><path class="cls-3" d="M82,54.15l-6.5,18.41L62.28,60.21s12.5-4.55,18.4-7.37A1,1,0,0,1,82,54.15Z"/><path class="cls-4" d="M57.17,79.46,75.25,72.3,62.07,60.05s-4.34,12.08-6.28,18.13C55.49,79.14,56.32,80,57.17,79.46Z"/><path class="cls-5" d="M221.79,89a17.81,17.81,0,0,1-5.12,12.91,16.78,16.78,0,0,1-12.53,5.28H169.27a16.84,16.84,0,0,1-12.48-5.28A17.74,17.74,0,0,1,151.61,89V44.49a17.77,17.77,0,0,1,5.18-12.92,16.87,16.87,0,0,1,12.48-5.27h44.79V40.78H172.54a4.89,4.89,0,0,0-3.6,1.57,5.16,5.16,0,0,0-1.53,3.71V87.27a5.27,5.27,0,0,0,1.53,3.82,4.85,4.85,0,0,0,3.6,1.57h28A5.19,5.19,0,0,0,204.41,91a5.54,5.54,0,0,0,1.58-4V71.78H187V59.42h34.76Z"/><path class="cls-6" d="M227.65,56.66a14.85,14.85,0,0,1,3.89-10.41,12.33,12.33,0,0,1,9.4-4.25h26.28a12.29,12.29,0,0,1,9.44,4.25,15,15,0,0,1,3.85,10.41V92.49a15,15,0,0,1-3.85,10.41,12.29,12.29,0,0,1-9.44,4.25H240.94a12.33,12.33,0,0,1-9.4-4.25,14.85,14.85,0,0,1-3.89-10.41ZM239.55,91a4.65,4.65,0,0,0,1.19,3.22,3.78,3.78,0,0,0,2.91,1.31h20.86a3.8,3.8,0,0,0,2.91-1.31A4.65,4.65,0,0,0,268.61,91V58.2A4.65,4.65,0,0,0,267.42,55a3.8,3.8,0,0,0-2.91-1.31H243.65A3.78,3.78,0,0,0,240.74,55a4.65,4.65,0,0,0-1.19,3.22Z"/><path class="cls-5" d="M378.77,107.15H334a16.83,16.83,0,0,1-12.47-5.28A17.7,17.7,0,0,1,316.33,89V44.49a17.73,17.73,0,0,1,5.18-12.92A16.86,16.86,0,0,1,334,26.3h44.79V40.78H337.25a4.85,4.85,0,0,0-3.59,1.57,5.16,5.16,0,0,0-1.53,3.71V87.39a5.13,5.13,0,0,0,1.53,3.7,4.82,4.82,0,0,0,3.59,1.57h41.52Z"/><path class="cls-6" d="M447.26,107.15h-13l-5.72-14.88H402.45l-5.63,14.88h-13l25.68-65.83h12.09Zm-31.72-49.3-9.36,24.28h18.63Z"/><path class="cls-6" d="M451.82,41.42h11.6l19,41.08,19.05-41.08H513v65.73H501v-37L487.27,97.56H477.5L463.83,70.27v36.88h-12Z"/><path class="cls-6" d="M524.38,41.42h38.27a12.3,12.3,0,0,1,9.52,4.33,15.1,15.1,0,0,1,3.9,10.46V72.46A15.19,15.19,0,0,1,572.17,83a12.31,12.31,0,0,1-9.52,4.34H536.39v19.81h-12ZM559.91,76a3.8,3.8,0,0,0,2.94-1.33,4.65,4.65,0,0,0,1.21-3.24V57.76a4.65,4.65,0,0,0-1.21-3.24,3.83,3.83,0,0,0-2.94-1.33H536.39V76Z"/><path class="cls-6" d="M583,41.42h12v65.73H583Z"/><path class="cls-6" d="M606.38,41.42h12.18l29.32,46v-46h12v65.73H647.71l-29.32-46v46h-12Z"/><path class="cls-6" d="M724,92.36a15.08,15.08,0,0,1-3.89,10.5,12.38,12.38,0,0,1-9.53,4.29h-26.5a12.42,12.42,0,0,1-9.49-4.29,15,15,0,0,1-3.93-10.5V56.21a15,15,0,0,1,3.93-10.5,12.42,12.42,0,0,1,9.49-4.29h34V53.19H686.56a3.58,3.58,0,0,0-2.73,1.28,4.31,4.31,0,0,0-1.16,3V91a4.41,4.41,0,0,0,1.16,3.1,3.54,3.54,0,0,0,2.73,1.28h21.29a3.82,3.82,0,0,0,2.94-1.32,4.64,4.64,0,0,0,1.2-3.24V78.39H697.58v-10H724Z"/><path class="cls-5" d="M107.5,95a1.5,1.5,0,0,0,0-3,1.5,1.5,0,0,0,0,3Z"/><path class="cls-5" d="M107.5,98.5a1.5,1.5,0,0,0,0-3,1.5,1.5,0,0,0,0,3Z"/></svg>